<?xml version="1.0" encoding="utf-8"?>
<!-- Generator: Adobe Illustrator 25.4.1, SVG Export Plug-In . SVG Version: 6.00 Build 0)  -->
<svg version="1.1" id="Capa_1" xmlns="http://www.w3.org/2000/svg" xmlns:xlink="http://www.w3.org/1999/xlink" x="0px" y="0px"
	 viewBox="0 0 538 171" style="enable-background:new 0 0 538 171;" xml:space="preserve">
<style type="text/css">
	.st0{font-family:'SairaUNSAM-Medium';}
	.st1{font-size:42.8246px;}
	.st2{font-family:'SairaUNSAM-MediumSC';}
	.st3{font-family:'SairaUNSAM-LightSC';}
</style>
<g>
	<g>
		<g>
			<g>
				<path d="M159.2,134.82c0,0.38-0.31,0.69-0.69,0.69h-29.62c-0.38,0-0.99,0.09-1.35,0.2l-31.02,9.72c-0.36,0.11-0.96,0.11-1.32,0
					l-31.01-9.72c-0.36-0.11-0.97-0.2-1.35-0.2H33.22c-0.38,0-0.69-0.31-0.69-0.69V35.71c0-0.38,0.31-0.69,0.69-0.69h29.62
					c0.38,0,0.99,0.1,1.35,0.21l31,9.76c0.36,0.11,0.96,0.11,1.32,0l31.03-9.76c0.36-0.11,0.97-0.21,1.35-0.21l29.62,0
					c0.38,0,0.69,0.31,0.69,0.69V134.82z M172.47,20.37h-42.89c-0.76,0-1.98,0.18-2.7,0.41l-29.7,9.31c-0.73,0.22-1.91,0.23-2.64,0
					l-29.69-9.3c-0.73-0.23-1.94-0.42-2.71-0.42H19.27c-0.76,0-1.38,0.62-1.38,1.38v127.02c0,0.76,0.62,1.38,1.38,1.38h42.88
					c0.77,0,1.98,0.19,2.71,0.42l29.68,9.34c0.73,0.23,1.91,0.23,2.64,0l29.71-9.34c0.73-0.23,1.94-0.42,2.7-0.42h42.88
					c0.76,0,1.38-0.62,1.38-1.38V21.75C173.85,20.99,173.23,20.37,172.47,20.37"/>
			</g>
		</g>
	</g>
	<text transform="matrix(1 0 0 1 190.6572 57.3467)"><tspan x="0" y="0" class="st0 st1">Humanidades</tspan><tspan x="0" y="42.82" class="st2 st1">lich-eh</tspan><tspan x="0" y="85.63" class="st3 st1">unsam-conicet</tspan></text>
</g>
</svg>
