<?xml version="1.0" encoding="utf-8"?>
<!-- Generator: Adobe Illustrator 25.4.1, SVG Export Plug-In . SVG Version: 6.00 Build 0)  -->
<svg version="1.1" id="Capa_1" xmlns="http://www.w3.org/2000/svg" xmlns:xlink="http://www.w3.org/1999/xlink" x="0px" y="0px"
	 viewBox="0 0 538 171" style="enable-background:new 0 0 538 171;" xml:space="preserve">
<style type="text/css">
	.st0{fill:#7BA0C4;}
	.st1{enable-background:new    ;}
	.st2{fill:#1D1D1B;}
</style>
<g>
	<g>
		<g>
			<g>
				<path class="st0" d="M159.2,134.8c0,0.4-0.3,0.7-0.7,0.7h-29.6c-0.4,0-1,0.1-1.3,0.2l-31,9.7c-0.4,0.1-1,0.1-1.3,0l-31-9.7
					c-0.4-0.1-1-0.2-1.3-0.2H33.2c-0.4,0-0.7-0.3-0.7-0.7V35.7c0-0.4,0.3-0.7,0.7-0.7h29.6c0.4,0,1,0.1,1.3,0.2l31,9.8
					c0.4,0.1,1,0.1,1.3,0l31-9.8c0.4-0.1,1-0.2,1.3-0.2h29.6c0.4,0,0.7,0.3,0.7,0.7V134.8z M172.5,20.4h-42.9c-0.8,0-2,0.2-2.7,0.4
					l-29.7,9.3c-0.7,0.2-1.9,0.2-2.6,0l-29.7-9.3c-0.7-0.2-1.9-0.4-2.7-0.4H19.3c-0.8,0-1.4,0.6-1.4,1.4v127c0,0.8,0.6,1.4,1.4,1.4
					h42.9c0.8,0,2,0.2,2.7,0.4l29.7,9.3c0.7,0.2,1.9,0.2,2.6,0l29.7-9.3c0.7-0.2,1.9-0.4,2.7-0.4h42.9c0.8,0,1.4-0.6,1.4-1.4v-127
					C173.9,21,173.2,20.4,172.5,20.4"/>
			</g>
		</g>
	</g>
	<g class="st1">
		<path class="st2" d="M199.4,27.9v12.5h13.7V27.9h4.8v29.5h-4.8V44.6h-13.7v12.7h-4.8V27.9H199.4z"/>
		<path class="st2" d="M225.3,49.2V35.5h4.5v11.9c0,5.7,0.6,6.3,4.7,6.3c4.6,0,5-2.3,5-6.9V35.5h4.5v21.8h-4.2l-0.2-2.9h-0.3
			c-1,2.1-3,3.3-6.9,3.3C226.3,57.7,225.3,54.8,225.3,49.2z"/>
		<path class="st2" d="M255,35.5l0.1,2.9h0.3c0.9-2.1,2.9-3.3,6.5-3.3c3.6,0,5.3,1,6.1,3.3h0.3c1-2.1,3-3.3,6.7-3.3
			c5.6,0,6.6,2.9,6.6,8.5v13.7H277V45.5c0-5.7-0.4-6.3-4.1-6.3c-4.1,0-4.5,2.1-4.5,6.9v11.3h-4.5V45.5c0-5.7-0.4-6.3-4.1-6.3
			c-4.1,0-4.5,2.2-4.5,6.9v11.3h-4.5V35.5H255z"/>
		<path class="st2" d="M287.2,51.3c0-5,1.5-6.8,6.8-6.8c1.2,0,4.9,0.1,7.4,0.2v-1c0-4.5-0.9-4.7-6.3-4.7c-1.9,0-5.2,0.2-6.5,0.4
			v-3.6c2.4-0.4,5.3-0.6,8.1-0.6c8.1,0,9.2,2.4,9.2,8.7v13.5h-4.2l-0.2-2.8h-0.3c-1.4,2.8-4.8,3.2-7.3,3.2
			C289.5,57.7,287.2,56.1,287.2,51.3z M300.6,52.3c0.5-0.9,0.8-2.2,0.8-3.9v-0.8h-6.3c-2.9,0-3.5,0.4-3.5,3.2c0,2.7,0.6,3.1,4.4,3.1
			C298.2,54,299.8,53.7,300.6,52.3z"/>
		<path class="st2" d="M316.9,35.5l0.1,2.9h0.3c1-2.1,3-3.3,6.9-3.3c6.2,0,7.2,2.9,7.2,8.5v13.7h-4.5V45.5c0-5.7-0.5-6.3-4.6-6.3
			c-4.6,0-5.1,2.3-5.1,6.9v11.3h-4.5V35.5H316.9z"/>
		<path class="st2" d="M342.9,25.5V30h-4.8v-4.5H342.9z M342.8,35.5v21.8h-4.5V35.5H342.8z"/>
		<path class="st2" d="M348.8,46.5c0-8.7,1.9-11.3,7.7-11.3c3.1,0,5.5,0.6,6.8,2.9h0.3V25.5h4.5v31.8h-4.2l-0.2-2.9h-0.3
			c-1.3,2.7-4.1,3.2-6.9,3.2C350.7,57.7,348.8,55.2,348.8,46.5z M362.9,51.6c0.6-1.3,0.6-3,0.6-5.3c0-2.1,0-3.8-0.6-4.9
			c-0.6-1.5-2-2.2-4.5-2.2c-4.5,0-5.1,0.8-5.1,7.2c0,6.5,0.6,7.2,5.1,7.2C360.9,53.7,362.3,53,362.9,51.6z"/>
		<path class="st2" d="M373.6,51.3c0-5,1.5-6.8,6.8-6.8c1.2,0,4.9,0.1,7.4,0.2v-1c0-4.5-0.9-4.7-6.3-4.7c-1.9,0-5.2,0.2-6.5,0.4
			v-3.6c2.4-0.4,5.3-0.6,8.1-0.6c8.1,0,9.2,2.4,9.2,8.7v13.5h-4.2l-0.2-2.8h-0.3c-1.4,2.8-4.8,3.2-7.3,3.2
			C375.9,57.7,373.6,56.1,373.6,51.3z M387,52.3c0.5-0.9,0.8-2.2,0.8-3.9v-0.8h-6.3c-2.9,0-3.5,0.4-3.5,3.2c0,2.7,0.6,3.1,4.4,3.1
			C384.6,54,386.2,53.7,387,52.3z"/>
		<path class="st2" d="M398.2,46.5c0-8.7,1.9-11.3,7.7-11.3c3.1,0,5.5,0.6,6.8,2.9h0.3V25.5h4.5v31.8h-4.2l-0.2-2.9h-0.3
			c-1.3,2.7-4.1,3.2-6.9,3.2C400.2,57.7,398.2,55.2,398.2,46.5z M412.3,51.6c0.6-1.3,0.6-3,0.6-5.3c0-2.1,0-3.8-0.6-4.9
			c-0.6-1.5-2-2.2-4.5-2.2c-4.5,0-5.1,0.8-5.1,7.2c0,6.5,0.6,7.2,5.1,7.2C410.4,53.7,411.7,53,412.3,51.6z"/>
		<path class="st2" d="M428,47.9c0,5.1,0.3,6,6.6,6c1.9,0,4.8-0.2,6.8-0.4V57c-1.9,0.4-5.1,0.6-7.8,0.6c-9.3,0-10.2-2.9-10.2-11.2
			c0-7.9,0.9-11.3,9.9-11.3c8.7,0,9,3.4,9,11.3v1.5H428z M428,44.8h9.9v-0.1c0-5.1-1.1-5.7-4.8-5.7C428.6,38.9,428,39.9,428,44.8z"
			/>
		<path class="st2" d="M447.6,57.1v-3.6c2,0.2,5.1,0.4,7.6,0.4c4.1,0,4.5-0.7,4.5-2.7c0-2.2-0.4-2.4-2.5-2.6l-5.3-0.6
			c-4.1-0.5-4.9-2.5-4.9-6.2c0-5.8,3.5-6.5,8.7-6.5c2.4,0,5.4,0.3,7.2,0.6v3.6c-2.1-0.3-4.7-0.4-6.8-0.4c-3.3,0-4.7,0.2-4.7,2.7
			c0,2,0.3,2.3,2.3,2.5l5.8,0.7c3.2,0.4,4.6,1.2,4.6,6.3c0,5.7-3,6.6-8.2,6.6C453.3,57.7,449.9,57.4,447.6,57.1z"/>
	</g>
	<g class="st1">
		<path class="st2" d="M195.1,75.2h4.4v21.3h11.2v3.7h-15.6V75.2z"/>
		<path class="st2" d="M217,75.2h4.4v25H217V75.2z"/>
		<path class="st2" d="M229.1,87.7c0-10.8,2.4-12.8,12.5-12.8c0.8,0,4.3,0.3,6.2,0.8v3c-2.6,0-3.8-0.1-5.4-0.1
			c-7.9,0-8.9,0.8-8.9,9.3c0,8.1,0.9,9.3,8.4,9.3c1.8,0,4.6-0.2,5.9-0.3v3.4c-2.1,0.2-4.1,0.3-5.7,0.3
			C231.2,100.5,229.1,98.4,229.1,87.7z"/>
		<path class="st2" d="M255.9,75.2h4.6v10.6h12.5V75.2h4.5v25h-4.5V89.3h-12.5v10.8h-4.6V75.2z"/>
		<path class="st2" d="M284.7,86h10.8v3.8h-10.8V86z"/>
		<path class="st2" d="M302.6,75.2h18.3v3.5H307v7.2h12v3.5h-12v7.3h13.9v3.5h-18.3V75.2z"/>
		<path class="st2" d="M327.8,75.2h4.6v10.6h12.5V75.2h4.5v25h-4.5V89.3h-12.5v10.8h-4.6V75.2z"/>
	</g>
	<g class="st1">
		<path class="st2" d="M195.6,131.8V118h2.7v14.9c0,6.8,1.3,8.3,7.3,8.3c6,0,7.2-1.5,7.2-8.3V118h2.8v13.8c0,9.3-2,11.6-10,11.6
			S195.6,141,195.6,131.8z"/>
		<path class="st2" d="M225.5,117.9h2.6l15.6,20.7h0v-20.7h2.5V143h-2.4L228,122h0V143h-2.5V117.9z"/>
		<path class="st2" d="M255.1,142.8v-2.2c3.9,0.4,5.9,0.6,9.2,0.6c4.5,0,6.3-0.6,6.3-5.2c0-3.5-1.2-3.9-3.8-4.2l-6.9-0.7
			c-4.2-0.4-5.5-2.1-5.5-6.3c0-6.5,4-7.1,9.8-7.1c2.4,0,5.6,0.3,7.8,0.6v2.1c-2.8-0.4-5.2-0.6-8.2-0.6c-3.9,0-6.7,0.2-6.7,4.7
			c0,3.6,1,4.1,3.8,4.3l7,0.7c3.7,0.3,5.5,1.7,5.5,6.4c0,6.4-3.4,7.5-9.2,7.5C261.4,143.3,257.6,143,255.1,142.8z"/>
		<path class="st2" d="M287.8,118h3.1l10.7,25h-2.9l-3.1-7.3h-12.6L280,143h-2.8L287.8,118z M294.8,133.4l-5.4-12.8h0l-5.4,12.8
			H294.8z"/>
		<path class="st2" d="M307.2,118h3.7l9,21.7h0.1l9.1-21.7h3.6v25h-2.7v-21.1H330l-9,21.1h-2.4l-8.6-21.1h0V143h-2.7V118z"/>
		<path class="st2" d="M340.2,129.5h10.1v2.4h-10.1V129.5z"/>
		<path class="st2" d="M357,130.5c0-10.8,2.1-12.8,11.6-12.8c2.4,0,4.8,0.3,6.4,0.5v2.1c-1.6-0.3-3.9-0.5-6.2-0.5
			c-7.7,0-9.1,1-9.1,10.6c0,9.4,1.1,10.8,9.6,10.8c1.8,0,4.3-0.2,5.6-0.3v2.2c-1.7,0.2-4,0.3-5.6,0.3
			C358.9,143.3,357,141.3,357,130.5z"/>
		<path class="st2" d="M381.7,130.4c0-11,0.6-12.8,11-12.8c10.4,0,11,1.8,11,12.8c0,11.1-0.6,12.9-11,12.9
			C382.3,143.3,381.7,141.5,381.7,130.4z M400.9,130.4c0-10.5-0.6-10.7-8.3-10.7c-7.7,0-8.3,0.2-8.3,10.7c0,10.5,0.6,10.7,8.3,10.7
			C400.3,141.1,400.9,141,400.9,130.4z"/>
		<path class="st2" d="M412.6,117.9h2.6l15.6,20.7h0v-20.7h2.5V143h-2.4L415.2,122h0V143h-2.5V117.9z"/>
		<path class="st2" d="M443.2,118h2.7v25h-2.7V118z"/>
		<path class="st2" d="M454.9,130.5c0-10.8,2.1-12.8,11.6-12.8c2.4,0,4.8,0.3,6.4,0.5v2.1c-1.6-0.3-3.9-0.5-6.2-0.5
			c-7.7,0-9.1,1-9.1,10.6c0,9.4,1.1,10.8,9.6,10.8c1.8,0,4.3-0.2,5.6-0.3v2.2c-1.7,0.2-4,0.3-5.6,0.3
			C456.7,143.3,454.9,141.3,454.9,130.5z"/>
		<path class="st2" d="M480.4,118H498v2.2h-14.9v9h13.1v2.2h-13.1v9.3H498v2.2h-17.6V118z"/>
		<path class="st2" d="M511.1,120.4h-8.8v-2.4h20.4v2.4h-8.9V143h-2.7V120.4z"/>
	</g>
</g>
</svg>
