<?xml version="1.0" encoding="utf-8"?>
<!-- Generator: Adobe Illustrator 25.4.1, SVG Export Plug-In . SVG Version: 6.00 Build 0)  -->
<svg version="1.1" id="Capa_1" xmlns="http://www.w3.org/2000/svg" xmlns:xlink="http://www.w3.org/1999/xlink" x="0px" y="0px"
	 viewBox="0 0 42 42" style="enable-background:new 0 0 42 42;" xml:space="preserve">
<style type="text/css">
	.st0{fill:#7FAACD;}
	.st1{fill:#FFFFFF;}
</style>
<g>
	<circle class="st0" cx="21" cy="21" r="21"/>
	<path class="st1" d="M21,29.7c-3.6,0-6.5-2.9-6.5-6.5c0-3.1,4.4-8.9,5.6-10.5c0.2-0.2,0.5-0.4,0.8-0.4H21c0.3,0,0.6,0.1,0.8,0.4
		c1.2,1.6,5.6,7.4,5.6,10.5C27.5,26.8,24.6,29.7,21,29.7z M17.7,23.7c0-0.3-0.2-0.5-0.5-0.5c-0.3,0-0.5,0.2-0.5,0.5
		c0,2.1,1.7,3.8,3.8,3.8c0.3,0,0.5-0.2,0.5-0.5c0-0.3-0.2-0.5-0.5-0.5C19,26.4,17.7,25.2,17.7,23.7z"/>
</g>
</svg>
