<?xml version="1.0" encoding="utf-8"?>
<!-- Generator: Adobe Illustrator 25.4.1, SVG Export Plug-In . SVG Version: 6.00 Build 0)  -->
<svg version="1.1" id="Capa_1" xmlns="http://www.w3.org/2000/svg" xmlns:xlink="http://www.w3.org/1999/xlink" x="0px" y="0px"
	 viewBox="0 0 42 42" style="enable-background:new 0 0 42 42;" xml:space="preserve">
<style type="text/css">
	.st0{fill:#1B335B;}
	.st1{fill:#FFFFFF;}
</style>
<circle class="st0" cx="21" cy="21" r="21"/>
<g>
	<path class="st1" d="M21,11h3.8c0.3,0,0.5,0.2,0.5,0.5v2.2c0,0.3-0.2,0.5-0.5,0.5h-2.7l3,2.2h3.5c1.2,0,2.2,1,2.2,2.2v7.6
		c0,1.2-1,2.2-2.2,2.2h-6v-3.8c0-0.9-0.7-1.6-1.6-1.6s-1.6,0.7-1.6,1.6v3.8h-6c-1.2,0-2.2-1-2.2-2.2v-7.6c0-1.2,1-2.2,2.2-2.2h3.5
		l3.1-2.2v-2.2C19.9,11.5,20.4,11,21,11z M22.6,19.1c0-0.9-0.7-1.6-1.6-1.6s-1.6,0.7-1.6,1.6s0.7,1.6,1.6,1.6
		C21.9,20.8,22.6,20,22.6,19.1z M13.9,18.6c-0.3,0-0.5,0.2-0.5,0.5v2.2c0,0.3,0.2,0.5,0.5,0.5H15c0.3,0,0.5-0.2,0.5-0.5v-2.2
		c0-0.3-0.2-0.5-0.5-0.5H13.9z M26.4,19.1v2.2c0,0.3,0.2,0.5,0.5,0.5h1.1c0.3,0,0.5-0.2,0.5-0.5v-2.2c0-0.3-0.2-0.5-0.5-0.5H27
		C26.7,18.6,26.4,18.8,26.4,19.1z M13.9,22.9c-0.3,0-0.5,0.2-0.5,0.5v2.2c0,0.3,0.2,0.5,0.5,0.5H15c0.3,0,0.5-0.2,0.5-0.5v-2.2
		c0-0.3-0.2-0.5-0.5-0.5H13.9z M27,22.9c-0.3,0-0.5,0.2-0.5,0.5v2.2c0,0.3,0.2,0.5,0.5,0.5h1.1c0.3,0,0.5-0.2,0.5-0.5v-2.2
		c0-0.3-0.2-0.5-0.5-0.5H27z"/>
</g>
</svg>
