<?xml version="1.0" encoding="utf-8"?>
<!-- Generator: Adobe Illustrator 25.4.1, SVG Export Plug-In . SVG Version: 6.00 Build 0)  -->
<svg version="1.1" id="Capa_1" xmlns="http://www.w3.org/2000/svg" xmlns:xlink="http://www.w3.org/1999/xlink" x="0px" y="0px"
	 viewBox="0 0 42 42" style="enable-background:new 0 0 42 42;" xml:space="preserve">
<style type="text/css">
	.st0{fill:#E31F13;}
	.st1{fill:#FFFFFF;}
</style>
<g>
	<g>
		<g>
			<circle class="st0" cx="21" cy="21" r="21"/>
		</g>
		<g>
			<path class="st1" d="M21.9,24.9c0,0.1-0.1,0.2-0.2,0.2h-1.3c-0.1,0-0.2-0.1-0.2-0.2v-0.1c0-0.1,0.1-0.2,0.2-0.2h1.3
				c0.1,0,0.2,0.1,0.2,0.2C21.9,24.8,21.9,24.9,21.9,24.9z"/>
			<path class="st1" d="M22.2,23.7c0,0.1-0.1,0.1-0.2,0.1h-1.8c-0.1,0-0.2-0.1-0.2-0.1v-0.2c0-0.1,0.1-0.1,0.2-0.1H22
				c0.1,0,0.2,0.1,0.2,0.1L22.2,23.7L22.2,23.7z"/>
			<path class="st1" d="M30.3,24.2l-0.8-0.5c-0.3-0.2-0.7-0.1-0.8,0.2L26,28.6c-0.2,0.3-0.1,0.7,0.2,0.8l0.8,0.5
				c0.3,0.2,0.7,0.1,0.8-0.2l2.6-4.6C30.7,24.8,30.6,24.4,30.3,24.2z"/>
			<path class="st1" d="M13.4,24.1c-0.2-0.3-0.6-0.4-0.8-0.2l-0.8,0.5c-0.3,0.2-0.4,0.5-0.2,0.8l2.7,4.6c0.2,0.3,0.6,0.4,0.8,0.2
				l0.8-0.5c0.3-0.2,0.4-0.5,0.2-0.8L13.4,24.1z"/>
			<path class="st1" d="M27.3,24.3c0.2-0.3,0.1-0.7-0.2-0.8l-0.3-0.1c0.1-0.2,0.1-0.3,0.2-0.5c0.7-1.8,1.2-2.5,1.2-5.4
				c0-3.1-2.4-5.4-5.4-5.4c-1.2,0-2.5,0-3.7,0c-2.6,0.1-5.1,2.2-5.1,4.8c0,3.5,0.4,3.9,1.1,5.9c0.1,0.2,0.1,0.4,0.2,0.6L15,23.4
				c-0.3,0.2-0.4,0.5-0.2,0.8l1.8,3.1c0.2,0.3,0.5,0.4,0.8,0.2l0.6-0.3c2,1.8,4.3,2,6.3,0l0.5,0.3c0.3,0.2,0.7,0.1,0.8-0.2
				L27.3,24.3z M21.1,26.8c-2,0-2.2-0.4-2.2-3.8c0-1.6,1.2-1.3,2.2-1.4c1,0,2.2-0.3,2.2,1.4C23.4,26.4,23.1,26.8,21.1,26.8z"/>
			<path class="st0" d="M24.2,15.7c-1.1,0-2,0.9-2,2s0.9,2,2,2s2-0.9,2-2C26.3,16.6,25.4,15.7,24.2,15.7z"/>
			<path class="st0" d="M18,15.6c-1.2,0-2.1,0.9-2.1,2.1c0,1.2,0.9,2.1,2.1,2.1s2.1-1,2.1-2.1C20.1,16.5,19.2,15.6,18,15.6z"/>
		</g>
	</g>
</g>
</svg>
